<?xml version="1.0" encoding="UTF-8"?>
<svg id="svg10720" xmlns="http://www.w3.org/2000/svg" xmlns:svg="http://www.w3.org/2000/svg" xmlns:sodipodi="http://sodipodi.sourceforge.net/DTD/sodipodi-0.dtd" xmlns:inkscape="http://www.inkscape.org/namespaces/inkscape" version="1.1" viewBox="0 0 1200 1200">
  <!-- Generator: Adobe Illustrator 29.8.3, SVG Export Plug-In . SVG Version: 2.1.1 Build 3)  -->
  <defs>
    <style>
      .st0 {
        fill: #ed1c24;
        stroke: #000;
        stroke-miterlimit: 10;
        stroke-width: 10px;
      }
    </style>
  </defs>
  <g id="g10732">
    <g id="g10738">
      <path id="path10740" class="st0" d="M678.2,880.7c-2.3-4.1-3.2-8.7-3.9-13.2-.6-4.5-.7-9.2-.7-13.8,0-9.2.8-18.5,1.6-27.8.8-9.3,1.5-18.6,2.3-27.9.6-9.3,1.1-18.7,1.3-28.2.2-18.8-.7-37.9-5.5-56.5-2.4-9.2-5.9-18.3-10.9-26.4-5-8.1-11.7-15.3-19.6-20.3,6.9,6.3,12.4,13.9,16.4,22.1,4,8.2,6.6,17,8.5,26,1.7,9,2.8,18.1,3.3,27.3.5,9.2.7,18.4.4,27.7-.2,18.5-1.6,37.1-2,55.9-.2,9.4-.2,18.8.6,28.2.3,2.4.4,4.7.9,7.1l.6,3.5.8,3.5c1.2,4.6,2.9,9.2,5.9,12.8M671.5,644.5c0,.1-.2.3-.3.4,0,.1-.2.3-.3.4,21.6-.3,46.2,6.4,69.3,16.7,29.8,13.2,49.6,28.7,60.6,37.8,40.1,33,90.7,74.6,149.9,124.5,11.9-1.7,55.4-9.4,84-47.1,21-27.5,23.7-57.5,25.2-74,2.6-28.3-2.5-51.4-6.7-65.6,20.2,8,40.7,16.4,61.5,25.2,17.4,7.4,34.4,14.8,51.2,22.2-38.4-25.3-97.3-56.9-174.4-73.6-148.8-32.1-271,12-320.1,33ZM681,622.2c13.7-.6,27.3-3.2,40.6-6.3,13.4-3.1,26.6-6.7,39.7-10.7,13.1-4.1,26.1-8.5,38.8-13.6,12.7-5.1,25.5-10.5,36.7-18.5-6,3.2-12.4,5.7-18.8,8.1-6.4,2.4-12.8,4.6-19.3,6.8-12.9,4.3-25.9,8.5-38.9,12.5-13,4.1-26.1,8-39.2,11.8-3.3,1-6.6,1.9-9.8,2.8-3.3.9-6.6,1.8-9.9,2.7-6.6,1.9-13.2,3.3-20,4.6M793.3,736.5c-7-11.2-17.4-20-28.1-27.6-10.8-7.6-22.3-14.1-33.9-20.4-11.6-6.1-23.3-12-35-17.8-10.8-5.4-21.7-10.9-32.3-16.7-.8-.5-1.7-.9-2.5-1.4.7.6,1.5,1.1,2.2,1.7,9.7,7.4,20.2,13.8,30.8,19.8,11.4,6.5,23,12.6,34.5,18.8,11.5,6.1,23,12.3,34,19.2,11,6.9,21.6,14.4,30.3,24.4M744.7,1086.6c2,12,4.9,25.2,9.4,39.3,9.9,31.2,23.8,55.9,36.1,74-39.2-18.9-93.9-53-136.3-113.2-123.4-175.2-22.2-399.8-15.4-414.3-.8.4-1.3.6-1.3.6-9.6-2.7-29.1-9.8-46.8-24.3.6-.4,1.3-.8,1.9-1.2,4.3-2.7,8.6-5.2,13-7.8,8.7-5.1,17.6-9.9,26.4-14.6,8.9-4.7,17.9-9.3,26.9-13.6,6.8-3.2,13.6-6.4,20.4-9.1.2.5.3,1.1.4,1.6.4,2.2.6,4.3.8,6.3,99-147.5,238.6-218.9,327.5-183.1,65.3,26.3,111,113.6,126.8,143.7,26,49.6,37.5,95.2,43,126.7,1.6,15.3,9.2,104.2-55.5,178.1-9.6,11-74.7,83-164.9,76.9-63.1-4.2-103.4-44.3-169.3-109.9-37.3-37.1-87.4-94.7-133-176.7,73.3,68,102.3,131.7,115.4,176.7,19.1,65.8,10.1,112.3,46.2,169.3,29,45.8,70.3,71.5,98.9,85.7-57-3.7-113.9-7.4-170.9-11.1ZM595.4,596c12.5-3.2,25-6.6,37.3-10.4,6.2-2,12.3-4,18.3-6.4,2.6-1.1,5.3-2.2,7.9-3.4-1.7-1.7-3.4-3.4-5.2-5.1-22.5-21.4-47.2-39.1-48.1-29.3,1.7,17.7-14.1,43.5-33.2,60.3,7.7-1.8,15.4-3.7,23-5.7M629.3,620.9c8.5-5.5,17.1-10.8,25.9-15.9,6.4-3.7,12.8-7.4,19.6-10.7-3.6-5.3-8.9-11.5-15.1-17.8-2.6,1.5-5.2,2.9-7.8,4.3-5.8,3-11.7,5.7-17.7,8.2-12,5.1-24.2,9.7-36.4,14.1-11.3,4.1-22.6,7.9-33.9,11.8,6.5,13.9,15.9,24.7,25.9,33.1.7-.5,1.4-1,2-1.6,4.1-3,8.2-5.9,12.3-8.8,8.3-5.8,16.7-11.4,25.3-16.8M560.4,530c.7.2,1.5.5,2.2.7-7.3-36.7-5.2-164-90.6-275.3-46.6-60.7-124.6-112.3-144.4-96.4-23.7,19.1,39.7,133,51.5,154.2,55.8,100.3,125.5,170.4,181.2,216.8M559.9,312.9l2.2,6.9c.8,2.2,1.3,4.6,1.9,7l1.6,7,1.2,7.1c1.6,9.5,2.5,19,3.4,28.6.7,9.6,1.4,19.2,1.7,28.8.5,9.6.8,19.2,1,28.9l1.6,57.9c.6,19.3,1.4,38.7,3.6,58,1-19.4,1.8-38.7,2.3-58.1.3-9.7.3-19.4.4-29.1,0-9.7,0-19.4-.3-29.1-.1-4.8-.3-9.7-.6-14.5-.3-4.9-.4-9.7-.8-14.6-.8-9.7-1.6-19.4-3-29-1.4-9.6-3.1-19.3-5.6-28.7l-2-7.1c-.8-2.3-1.6-4.6-2.5-6.9-1.5-4.7-4-8.9-6.1-13.3M589.6,573.8c-2.6,5.2-6.3,11.3-11.5,17.5-3.1,3.8-6.2,7-9.2,9.6-37,27.7-148.9,104.6-286.5,99-67.2-2.7-132-24.8-142.9-28.6-46.9-16.3-83.8-36.4-110-53,38.9-16,77.8-32.1,116.6-48.1l-48.4-123.1c43.5,23.1,104.3,49.5,180.2,65.9,96.9,20.9,179.8,17.2,235.5,10.3-33.7,0-107-4.8-183.1-50.4-38.8-23.3-108.6-64.2-134.5-146.2-28.6-90.6,2.8-210.6,95.3-268.6,90.4-56.7,188.5-22.3,195.6-19.8,64.9,23.4,99.4,72.8,113.1,92.3,111.1,158.9,6.8,394.4-3.8,417.5,0,0,0,0,0,0,.9,3.6.4,8-1.1,12.8,0,0,0,0,0,0h0c-1.2,4-3.1,8.2-5.3,12.4-3.8-8.5-9.2-16.4-15.3-23.6-6-7-12.7-13.3-19.7-19.2-.6-.5-1.1-.9-1.7-1.4-15.3-12.6-32.1-22.9-48.8-33.2-8.4-5-16.8-10.1-25-15.2-8.3-5.1-16.4-10.4-24.3-16-7.8-5.7-15.3-11.7-22-18.7-6.7-6.9-12.5-14.7-16.6-23.6,2.6,9.5,7.7,18.3,13.8,26.1,6.2,7.8,13.5,14.7,21.2,20.9,15.4,12.5,32.3,22.7,48.9,32.9,8.4,5,16.7,10.1,24.9,15.2,6.4,4,12.7,8.2,18.9,12.5,1.8,1.2,3.5,2.4,5.3,3.6,15,10.9,29.1,23.3,39.6,39-6.8-7.4-15.1-13.5-24-18.3-9.3-4.9-19.3-8.4-29.5-10.6-20.5-4.5-41.7-4.7-62.5-2.6-20.8,2.1-41.3,6.6-61.2,12.6-19.9,6-39.3,13.7-57.9,22.8,19.4-7.4,39.1-13.7,59-19.1,19.9-5.2,40.2-9.4,60.6-11.4,20.4-2.1,41.1-2.2,61.2,1.5,17.2,3.2,34.1,9.6,48.3,20.3-2.3-1.4-4.8-2.4-7.3-3.4-5.5-1.9-11.2-2.9-17-3.4-19.4-1.8-34.4,1.1-34.4,1.1-27.8,4.4-50.5,12.4-53.6,13.5-19.6,7-46.7,18.2-78,36.4,22.9-9.4,52.8-21.1,85.9-32.9,4.9-1.7,22.6-7.9,46.3-12.1,17.5-3.1,26.3-2.9,33.5-2.2,13.2,1.2,23.8,5.2,31,8.7ZM589.1,572.9c0,0,.2.1.2.2,0,.1.2.3.3.4-.2-.2-.3-.4-.5-.6"/>
    </g>
  </g>
</svg>