<?xml version="1.0" encoding="UTF-8"?>
<svg id="uuid-3cfabb19-dd6c-4c7d-a4e0-a75bbdf21b00" data-name="uuid-4fd52c01-c27c-4aaa-a634-40f6b9ca0437" xmlns="http://www.w3.org/2000/svg" viewBox="0 0 768 768">
  <defs>
    <style>
      .uuid-24a61e18-cd19-43cb-8e05-08ba989d0308 {
        fill-rule: evenodd;
      }
    </style>
  </defs>
  <g id="uuid-4730d873-584a-4d55-916b-dc71c0f9086b" data-name="uuid-e49fde04-2dcb-4a91-8574-6183a6157b97">
    <path class="uuid-24a61e18-cd19-43cb-8e05-08ba989d0308" d="M384,0c211.9,0,384,172.1,384,384s-172.1,384-384,384S0,595.9,0,384,172.1,0,384,0ZM384,144c-65.2,0-73.4.3-99,1.4-25.5,1.2-43,5.2-58.3,11.2-15.8,6.1-29.2,14.3-42.5,27.7s-21.5,26.7-27.7,42.5c-5.9,15.3-10,32.7-11.2,58.3-1.2,25.6-1.4,33.8-1.4,99s.3,73.4,1.4,99c1.2,25.5,5.2,43,11.2,58.3,6.1,15.8,14.3,29.2,27.7,42.5,13.3,13.3,26.7,21.5,42.5,27.7,15.3,5.9,32.7,10,58.3,11.2s33.8,1.4,99,1.4,73.4-.3,99-1.4c25.5-1.2,43-5.2,58.3-11.2,15.8-6.1,29.2-14.3,42.5-27.7,13.3-13.3,21.5-26.7,27.7-42.5,5.9-15.3,10-32.7,11.2-58.3,1.2-25.6,1.4-33.8,1.4-99s-.3-73.4-1.4-99c-1.2-25.5-5.2-43-11.2-58.3-6.1-15.8-14.3-29.2-27.7-42.5-13.3-13.3-26.7-21.5-42.5-27.7-15.3-5.9-32.7-10-58.3-11.2-25.6-1.2-33.8-1.4-99-1.4h0ZM384,187.2c64.1,0,71.7.2,97,1.4,23.4,1.1,36.1,5,44.6,8.3,11.2,4.4,19.2,9.6,27.6,18,8.4,8.4,13.6,16.4,18,27.6,3.3,8.5,7.2,21.2,8.3,44.6,1.2,25.3,1.4,32.9,1.4,97s-.2,71.7-1.4,97c-1.1,23.4-5,36.1-8.3,44.6-4.4,11.2-9.6,19.2-18,27.6-8.4,8.4-16.4,13.6-27.6,18-8.5,3.3-21.2,7.2-44.6,8.3-25.3,1.2-32.9,1.4-97,1.4s-71.7-.2-97-1.4c-23.4-1.1-36.1-5-44.6-8.3-11.2-4.4-19.2-9.6-27.6-18-8.4-8.4-13.6-16.4-18-27.6-3.3-8.5-7.2-21.2-8.3-44.6-1.2-25.3-1.4-32.9-1.4-97s.2-71.7,1.4-97c1.1-23.4,5-36.1,8.3-44.6,4.4-11.2,9.6-19.2,18-27.6,8.4-8.4,16.4-13.6,27.6-18,8.5-3.3,21.2-7.2,44.6-8.3,25.3-1.2,32.9-1.4,97-1.4h0ZM384,260.8c-68.1,0-123.2,55.2-123.2,123.2s55.2,123.2,123.2,123.2,123.2-55.2,123.2-123.2-55.2-123.2-123.2-123.2h0ZM384,464c-44.2,0-80-35.8-80-80s35.8-80,80-80,80,35.8,80,80-35.8,80-80,80ZM540.9,255.9c0,15.9-12.9,28.8-28.8,28.8s-28.8-12.9-28.8-28.8,12.9-28.8,28.8-28.8,28.8,12.9,28.8,28.8h0Z"/>
  </g>
</svg>