<?xml version="1.0" encoding="UTF-8"?>
<svg id="uuid-cbf86c68-2099-406d-9016-240d8ebc7e7c" data-name="Layer 2" xmlns="http://www.w3.org/2000/svg" viewBox="0 0 768 768">
  <defs>
    <style>
      .uuid-e8bb36c6-6e08-4def-b70d-d602a0b96716 {
        fill: #fff;
        fill-rule: evenodd;
      }
    </style>
  </defs>
  <g id="uuid-2e4e2186-5209-4aaa-a5ee-d5fc6d96d3da" data-name="Layer 1">
    <path class="uuid-e8bb36c6-6e08-4def-b70d-d602a0b96716" d="M384,0c211.9,0,384,172.1,384,384s-172.1,384-384,384S0,595.9,0,384,172.1,0,384,0ZM316.4,588.2c169.9,0,262.8-140.8,262.8-262.8s0-8-.2-11.9c18-13,33.7-29.3,46.2-47.9-16.5,7.3-34.3,12.3-53.1,14.6,19.2-11.5,33.7-29.5,40.6-51.1-17.8,10.5-37.5,18.2-58.6,22.4-16.9-18-40.8-29.1-67.4-29.1-51,0-92.3,41.4-92.3,92.3s.8,14.4,2.5,21.1c-76.8-3.8-144.8-40.6-190.4-96.6-7.9,13.6-12.5,29.5-12.5,46.4,0,32,16.3,60.3,41.2,76.8-15.1-.4-29.3-4.6-41.8-11.5v1.1c0,44.8,31.8,82,74.1,90.6-7.7,2.1-15.9,3.3-24.3,3.3s-11.7-.6-17.4-1.7c11.7,36.8,45.8,63.4,86.2,64.2-31.6,24.7-71.5,39.5-114.8,39.5s-14.8-.4-22-1.3c40.4,26.4,89.1,41.8,141.2,41.8h0Z"/>
  </g>
</svg>